<?xml version="1.0" standalone="no"?>
<!DOCTYPE svg PUBLIC "-//W3C//DTD SVG 20010904//EN"
 "http://www.w3.org/TR/2001/REC-SVG-20010904/DTD/svg10.dtd">
<svg version="1.0" xmlns="http://www.w3.org/2000/svg"
 width="225.000000pt" height="225.000000pt" viewBox="0 0 225.000000 225.000000"
 preserveAspectRatio="xMidYMid meet">

<g transform="translate(0.000000,225.000000) scale(0.100000,-0.100000)"
fill="#000000" stroke="none">
<path d="M985 2240 c-269 -38 -485 -149 -671 -341 -415 -432 -416 -1109 -3
-1544 161 -169 347 -276 572 -327 121 -28 353 -30 472 -4 370 81 683 349 819
701 54 142 69 229 69 400 0 218 -44 388 -145 560 -162 274 -440 477 -743 540
-94 20 -285 27 -370 15z m423 -74 c185 -52 339 -142 477 -281 143 -144 233
-299 287 -497 19 -72 22 -108 23 -263 0 -165 -3 -188 -27 -275 -53 -189 -144
-346 -281 -484 -134 -136 -296 -231 -487 -284 -87 -25 -110 -27 -275 -27 -153
1 -192 4 -260 22 -395 108 -680 392 -787 786 -19 71 -22 107 -22 262 0 197 11
263 73 412 130 316 417 561 746 636 110 26 111 26 280 22 135 -3 175 -7 253
-29z"/>
<path d="M1400 1766 c-25 -7 -56 -18 -70 -23 -40 -17 -120 -93 -120 -114 0
-23 23 -25 40 -4 7 9 26 25 42 37 28 19 30 19 42 3 16 -22 36 -11 36 20 0 24
39 45 86 45 20 0 23 -6 26 -42 2 -30 8 -43 18 -43 11 0 16 13 18 44 l3 44 45
-7 c57 -7 64 -12 64 -41 0 -31 20 -43 36 -20 12 16 14 16 42 -4 41 -28 68 -71
52 -81 -21 -13 -7 -45 18 -42 23 3 33 -12 47 -75 l7 -33 -47 0 c-42 0 -46 -2
-43 -22 2 -19 10 -24 46 -26 35 -3 42 -6 38 -20 -2 -9 -7 -32 -11 -50 -5 -22
-12 -32 -23 -31 -33 3 -42 -1 -42 -21 0 -11 5 -20 10 -20 21 0 8 -28 -31 -65
-38 -38 -41 -39 -54 -21 -20 27 -49 14 -41 -19 7 -29 -10 -41 -73 -51 l-41 -7
0 47 c0 39 -3 46 -20 46 -17 0 -20 -7 -20 -45 0 -51 -6 -53 -72 -33 -36 10
-38 14 -33 40 6 24 3 28 -15 28 -11 0 -23 -6 -26 -14 -3 -8 -15 -11 -30 -8
-19 3 -24 0 -24 -17 0 -17 15 -29 68 -54 59 -28 77 -32 152 -32 75 0 93 4 152
32 135 64 208 172 216 320 7 123 -22 197 -109 283 -44 44 -81 71 -115 83 -64
24 -186 31 -244 13z"/>
<path d="M794 1701 c-82 -14 -161 -34 -176 -43 -29 -19 -58 -74 -58 -110 0
-14 7 -47 15 -74 19 -64 19 -74 -3 -74 -33 0 -52 -33 -52 -86 0 -60 15 -83 59
-92 28 -6 36 -14 52 -56 10 -28 37 -68 59 -91 35 -35 40 -47 40 -86 l0 -45
-113 -37 c-124 -40 -166 -66 -206 -124 -24 -36 -26 -46 -29 -176 l-4 -137 514
2 513 3 3 100 c4 125 -1 151 -38 207 -35 53 -87 83 -222 128 l-98 32 0 44 c0
39 5 50 36 80 20 19 46 34 58 34 32 0 83 36 102 71 12 23 16 55 15 113 -2 82
-10 102 -47 116 -21 8 -22 10 -8 51 11 32 12 49 4 73 -12 35 -48 76 -66 76 -7
0 -25 22 -40 49 -30 55 -71 82 -126 80 -18 -1 -101 -13 -184 -28z m252 -42 c9
-10 19 -33 23 -50 5 -26 14 -35 41 -44 19 -6 42 -23 50 -38 13 -23 12 -32 -6
-89 -11 -35 -24 -63 -30 -63 -5 0 -10 25 -12 55 -5 90 -25 98 -118 48 -57 -32
-62 -33 -182 -33 -111 0 -125 -2 -138 -20 -8 -10 -14 -28 -14 -39 0 -34 -11
-11 -31 66 -24 95 -24 121 4 153 19 23 39 29 162 50 214 37 221 37 251 4z m21
-226 c2 -82 3 -84 34 -101 30 -17 30 -18 24 -76 -4 -33 -13 -72 -21 -88 -14
-27 -17 -28 -89 -28 -68 0 -75 -2 -75 -20 0 -18 7 -20 58 -20 l57 -1 -29 -23
c-105 -87 -289 -40 -347 88 -24 53 -26 161 -4 170 9 3 22 21 30 39 l14 34 56
-10 c71 -13 167 2 233 36 61 31 58 31 59 0z m-457 -123 c0 -34 -4 -50 -13 -50
-22 0 -37 22 -37 55 0 36 6 45 32 45 15 0 18 -8 18 -50z m608 4 c2 -31 -1 -43
-13 -48 -27 -10 -35 2 -35 50 0 41 2 45 23 42 18 -2 23 -10 25 -44z m-13 -124
c-9 -16 -17 -30 -19 -30 -3 0 -12 -3 -21 -6 -13 -5 -15 -2 -9 22 10 41 12 44
40 44 24 0 24 -1 9 -30z m-315 -200 c32 0 70 4 84 10 26 9 26 9 26 -38 0 -51
-18 -76 -82 -117 -26 -16 -29 -16 -63 5 -53 33 -75 66 -75 116 0 43 1 43 26
34 14 -6 52 -10 84 -10z m-140 -99 c0 -16 61 -71 102 -92 l39 -20 45 26 c25
14 59 41 76 59 l32 33 115 -38 c64 -22 124 -47 134 -57 17 -18 16 -20 -40 -53
-69 -41 -113 -105 -121 -176 -3 -26 -10 -51 -16 -55 -12 -8 -400 -9 -432 -2
-17 4 -23 16 -28 50 -11 86 -72 167 -150 199 l-39 16 21 21 c11 12 69 38 129
59 115 40 133 44 133 30z m-261 -170 c50 -26 97 -81 110 -128 21 -74 22 -73
-84 -73 l-95 0 0 79 c0 88 8 141 22 141 5 0 26 -9 47 -19z m861 0 c5 -11 10
-60 10 -110 l0 -91 -96 0 -97 0 5 44 c7 60 42 112 97 147 53 34 67 36 81 10z"/>
<path d="M1344 1536 c-18 -8 -36 -27 -43 -45 -25 -59 12 -86 39 -28 16 35 51
47 76 27 28 -24 15 -55 -56 -125 -38 -38 -70 -75 -70 -82 0 -10 24 -13 90 -13
83 0 90 1 90 20 0 17 -7 20 -52 20 l-53 0 53 51 c49 49 59 70 52 119 -2 22
-42 58 -70 64 -14 3 -39 0 -56 -8z"/>
<path d="M1573 1538 c-19 -22 -52 -201 -41 -215 6 -7 28 -13 49 -13 32 0 39
-3 39 -20 0 -13 7 -20 20 -20 13 0 20 7 20 19 0 13 8 21 23 23 14 2 22 10 22
23 0 13 -8 21 -22 23 -20 3 -23 9 -23 48 0 37 -3 44 -20 44 -17 0 -20 -7 -20
-45 0 -38 -3 -45 -20 -45 -24 0 -24 12 -5 100 11 53 11 67 1 78 -10 11 -15 11
-23 0z"/>
</g>
</svg>
