<?xml version="1.0" standalone="no"?>
<!DOCTYPE svg PUBLIC "-//W3C//DTD SVG 20010904//EN"
 "http://www.w3.org/TR/2001/REC-SVG-20010904/DTD/svg10.dtd">
<svg version="1.0" xmlns="http://www.w3.org/2000/svg"
 width="200.000000pt" height="200.000000pt" viewBox="0 0 200.000000 200.000000"
 preserveAspectRatio="xMidYMid meet">

<g transform="translate(0.000000,200.000000) scale(0.100000,-0.100000)"
fill="#000000" stroke="none">
<path d="M760 1979 c-119 -50 -136 -215 -29 -286 33 -22 47 -25 99 -21 49 4
66 10 91 34 36 33 59 81 59 121 -1 43 -34 108 -70 133 -37 26 -111 36 -150 19z"/>
<path d="M515 1591 c-43 -26 -82 -75 -95 -119 -14 -50 -13 -537 1 -563 25 -48
100 -40 118 13 7 18 11 120 11 249 0 212 1 219 20 219 19 0 20 -10 22 -661 l3
-661 33 -29 c40 -36 81 -38 119 -5 l28 24 5 379 5 378 33 3 32 3 0 -359 c0
-237 4 -370 11 -391 22 -63 102 -80 150 -32 l29 29 0 657 0 656 26 -3 c25 -3
30 -14 90 -202 34 -109 65 -201 68 -204 3 -2 -5 -13 -19 -23 -31 -25 -42 -76
-22 -96 19 -19 37 -9 37 21 0 32 19 46 61 46 65 0 69 -5 69 -79 l0 -67 -44
-12 c-112 -29 -164 -137 -116 -237 15 -31 36 -50 87 -81 l68 -41 3 -91 c1 -51
-1 -92 -6 -92 -19 0 -46 43 -51 83 l-6 42 -55 0 c-54 0 -55 0 -58 -32 -8 -86
47 -162 133 -184 l44 -11 3 -52 c3 -43 6 -51 23 -51 17 0 20 8 23 52 3 49 5
52 35 58 54 11 113 52 131 89 22 47 21 133 -3 173 -11 18 -50 49 -90 73 l-71
42 0 89 c0 84 1 89 18 80 29 -16 40 -33 44 -71 l3 -35 55 0 55 0 3 40 c5 77
-56 148 -140 161 l-38 7 0 69 c0 64 -2 72 -31 100 -21 21 -29 38 -25 51 3 11
-30 130 -74 264 -118 367 -99 353 -467 353 -234 0 -261 -2 -288 -19z m833
-1020 l-3 -40 -23 18 c-18 13 -24 27 -24 56 0 29 6 44 24 58 l23 19 3 -36 c2
-19 2 -53 0 -75z m95 -229 c24 -21 22 -77 -3 -102 -33 -33 -40 -24 -40 56 0
79 2 81 43 46z"/>
</g>
</svg>
